<svg width="256" height="256" viewBox="0 0 256 256" fill="none" xmlns="http://www.w3.org/2000/svg">
  <defs>
    <linearGradient id="roachnet-green" x1="32" y1="40" x2="224" y2="216" gradientUnits="userSpaceOnUse">
      <stop stop-color="#6DFF53"/>
      <stop offset="1" stop-color="#00FF66"/>
    </linearGradient>
    <linearGradient id="roachnet-magenta" x1="52" y1="48" x2="212" y2="208" gradientUnits="userSpaceOnUse">
      <stop stop-color="#FF67FF"/>
      <stop offset="1" stop-color="#C000C0"/>
    </linearGradient>
    <filter id="roachnet-glow-green" x="0" y="0" width="256" height="256" filterUnits="userSpaceOnUse" color-interpolation-filters="sRGB">
      <feGaussianBlur stdDeviation="6" result="blur"/>
      <feBlend in="SourceGraphic" in2="blur" mode="screen"/>
    </filter>
    <filter id="roachnet-glow-magenta" x="0" y="0" width="256" height="256" filterUnits="userSpaceOnUse" color-interpolation-filters="sRGB">
      <feGaussianBlur stdDeviation="4" result="blur"/>
      <feBlend in="SourceGraphic" in2="blur" mode="screen"/>
    </filter>
  </defs>

  <rect width="256" height="256" rx="44" fill="#0A0D11"/>
  <rect x="8" y="8" width="240" height="240" rx="36" stroke="#1B2128" stroke-width="2"/>
  <path d="M128 28L198.148 68.5V149.5L128 190L57.8519 149.5V68.5L128 28Z" stroke="url(#roachnet-green)" stroke-width="8" filter="url(#roachnet-glow-green)"/>
  <path d="M128 54L175.631 81.5V136.5L128 164L80.3686 136.5V81.5L128 54Z" stroke="url(#roachnet-magenta)" stroke-width="5" filter="url(#roachnet-glow-magenta)"/>

  <g stroke="url(#roachnet-magenta)" stroke-width="4" filter="url(#roachnet-glow-magenta)">
    <path d="M128 54V164"/>
    <path d="M80.3686 81.5H175.631"/>
    <path d="M57.8519 149.5H198.148"/>
    <path d="M80.3686 81.5L128 164L175.631 81.5"/>
    <path d="M57.8519 149.5L128 54L198.148 149.5"/>
  </g>

  <g fill="url(#roachnet-green)" filter="url(#roachnet-glow-green)">
    <circle cx="128" cy="28" r="9"/>
    <circle cx="198.148" cy="68.5" r="9"/>
    <circle cx="198.148" cy="149.5" r="9"/>
    <circle cx="128" cy="190" r="9"/>
    <circle cx="57.8519" cy="149.5" r="9"/>
    <circle cx="57.8519" cy="68.5" r="9"/>
    <circle cx="128" cy="81.5" r="7"/>
    <circle cx="95.5" cy="136.5" r="7"/>
    <circle cx="160.5" cy="136.5" r="7"/>
  </g>

  <g fill="#0A0D11" stroke="url(#roachnet-green)" stroke-width="6" filter="url(#roachnet-glow-green)">
    <path d="M128 84C151.196 84 170 102.804 170 126V131C170 157.51 151.196 179 128 179C104.804 179 86 157.51 86 131V126C86 102.804 104.804 84 128 84Z"/>
    <path d="M101 76L86 49"/>
    <path d="M155 76L170 49"/>
  </g>

  <g fill="#0A0D11" stroke="#0A0D11" stroke-width="4">
    <path d="M107 124C113.667 115.333 120.333 111 127 111C118 120.333 114.667 129.333 117 138L107 124Z"/>
    <path d="M149 124C142.333 115.333 135.667 111 129 111C138 120.333 141.333 129.333 139 138L149 124Z"/>
  </g>
</svg>
